<svg width="33" height="32" viewBox="0 0 33 32" fill="none" xmlns="http://www.w3.org/2000/svg">
<path d="M16.5005 9.62335V16.1266L20.565 20.1911" stroke="#201B10" stroke-width="2.43872" stroke-linecap="round" stroke-linejoin="round"/>
<mask id="path-3-inside-1_0_1" fill="white">
<path d="M4.04371 7.78793L2.82435 7.7928C2.82563 8.11423 2.95377 8.42215 3.1809 8.64958C3.40803 8.87702 3.71578 9.00557 4.0372 9.00728L4.04371 7.78793ZM8.17652 9.02679C8.33664 9.02754 8.49535 8.99674 8.64358 8.93615C8.7918 8.87557 8.92664 8.78638 9.0404 8.67368C9.15415 8.56098 9.2446 8.42698 9.30657 8.27932C9.36854 8.13167 9.40082 7.97326 9.40156 7.81313C9.40231 7.653 9.37151 7.49429 9.31092 7.34607C9.25034 7.19784 9.16115 7.063 9.04845 6.94924C8.93575 6.83549 8.80174 6.74504 8.65409 6.68307C8.50644 6.62111 8.34803 6.58883 8.1879 6.58808L8.17652 9.02679ZM5.24193 3.64211C5.24107 3.48198 5.20869 3.32359 5.14662 3.17598C5.08455 3.02837 4.99402 2.89442 4.88019 2.7818C4.76636 2.66918 4.63146 2.58008 4.48319 2.51959C4.33492 2.4591 4.1762 2.4284 4.01607 2.42926C3.85594 2.43011 3.69755 2.4625 3.54993 2.52456C3.40232 2.58663 3.26838 2.67716 3.15576 2.791C3.04313 2.90483 2.95403 3.03973 2.89354 3.18799C2.83305 3.33626 2.80236 3.49499 2.80321 3.65512L5.24193 3.64211ZM3.21292 14.1513C3.23628 13.992 3.22784 13.8296 3.18808 13.6735C3.14833 13.5174 3.07804 13.3707 2.98128 13.242C2.88453 13.1132 2.76322 13.0049 2.62437 12.9233C2.48551 12.8417 2.33186 12.7884 2.1723 12.7664C2.01273 12.7445 1.8504 12.7545 1.69468 12.7956C1.53897 12.8368 1.39296 12.9085 1.26509 13.0064C1.13721 13.1043 1.03 13.2266 0.949653 13.3662C0.869305 13.5058 0.817409 13.6599 0.796963 13.8197L3.21292 14.1513ZM27.657 4.9704C21.4464 -1.2402 11.4103 -1.30523 5.2403 4.86635L6.96366 6.5897C12.1663 1.38874 20.6579 1.41963 25.9336 6.69376L27.657 4.9704ZM5.34435 27.283C11.5549 33.4936 21.5911 33.5586 27.761 27.3871L26.0377 25.6637C20.8351 30.8647 12.3435 30.8338 7.06771 25.5597L5.34435 27.283ZM27.761 27.3871C33.931 21.2171 33.8676 11.181 27.657 4.9704L25.9336 6.69376C31.2077 11.9695 31.2386 20.4611 26.0377 25.6637L27.761 27.3871ZM5.2403 4.86635L3.1804 6.92462L4.90539 8.64798L6.96366 6.5897L5.2403 4.86635ZM4.0372 9.00728L8.17652 9.02679L8.1879 6.58808L4.05021 6.56857L4.0372 9.00728ZM5.26306 7.78142L5.24193 3.64211L2.80321 3.65512L2.82435 7.7928L5.26306 7.78142ZM0.795337 13.8181C0.461045 16.261 0.697705 18.7481 1.48673 21.0842C2.27575 23.4202 3.59564 25.5415 5.34273 27.2814L7.06609 25.558C5.58513 24.084 4.46624 22.2866 3.79737 20.3071C3.1285 18.3276 2.92789 16.2199 3.21129 14.1497L0.795337 13.8181Z"/>
</mask>
<path d="M6.10198 5.72803L6.63231 5.1977L5.77063 4.33602L5.2403 4.86635L4.70997 5.39668L5.57165 6.25836L6.10198 5.72803ZM8.1879 6.58808L7.4379 6.58458L7.42652 9.02329L8.17652 9.02679L8.92651 9.03029L8.93789 6.59158L8.1879 6.58808ZM2.80321 3.65512L2.80721 4.40511L5.24593 4.3921L5.24193 3.64211L5.23793 2.89212L2.79921 2.90513L2.80321 3.65512ZM5.2403 4.86635L4.70997 5.39668L6.43333 7.12003L6.96366 6.5897L7.49399 6.05937L5.77063 4.33602L5.2403 4.86635ZM25.9336 6.69376L26.4639 7.22409L28.1873 5.50073L27.657 4.9704L27.1266 4.44007L25.4033 6.16343L25.9336 6.69376ZM27.761 27.3871L28.2914 26.8567L26.568 25.1334L26.0377 25.6637L25.5073 26.194L27.2307 27.9174L27.761 27.3871ZM5.2403 4.86635L6.30054 5.92742L6.3011 5.92687L5.2403 4.86635ZM4.04371 7.78793L5.54368 7.79593L5.55176 6.28188L4.03771 6.28794L4.04371 7.78793ZM4.0372 9.00728L4.02921 10.5073L4.03013 10.5073L4.0372 9.00728ZM8.17652 9.02679L8.16945 10.5268L8.16952 10.5268L8.17652 9.02679ZM8.1879 6.58808L8.18082 8.08806L8.1809 8.08806L8.1879 6.58808ZM5.24193 3.64211L6.74191 3.63445L6.74191 3.63411L5.24193 3.64211ZM2.80321 3.65512L4.30319 3.64746L4.30319 3.64712L2.80321 3.65512ZM3.21292 14.1513L3.00891 15.6374L4.48145 15.8396L4.69705 14.3689L3.21292 14.1513ZM0.796963 13.8197L-0.690902 13.6293L-0.879586 15.1036L0.592955 15.3057L0.796963 13.8197ZM6.96366 6.5897L5.90317 5.52888L5.903 5.52904L6.96366 6.5897ZM25.9336 6.69376L26.9944 5.63326L26.9941 5.63293L25.9336 6.69376ZM5.34435 27.283L4.28369 26.2224L3.22303 27.283L4.28369 28.3437L5.34435 27.283ZM27.761 27.3871L26.7004 26.3264L26.7002 26.3266L27.761 27.3871ZM26.0377 25.6637L27.0982 26.7245L27.0985 26.7242L26.0377 25.6637ZM7.06771 25.5597L8.12821 24.4988L7.06755 23.4385L6.00705 24.499L7.06771 25.5597ZM3.1804 6.92462L2.12016 5.86354L1.05816 6.9247L2.12024 7.98578L3.1804 6.92462ZM4.90539 8.64798L3.84523 9.70914L4.90589 10.7688L5.96605 9.70864L4.90539 8.64798ZM4.05021 6.56857L4.05728 5.06859L2.55823 5.06152L2.55023 6.56057L4.05021 6.56857ZM5.26306 7.78142L5.27006 9.28141L6.77071 9.2744L6.76304 7.77376L5.26306 7.78142ZM0.795337 13.8181L0.999346 12.332L-0.487359 12.1279L-0.690813 13.6147L0.795337 13.8181ZM5.34273 27.2814L4.28425 28.3442L5.34491 29.4005L6.40339 28.3421L5.34273 27.2814ZM7.06609 25.558L8.12675 26.6187L9.18991 25.5555L8.12425 24.4949L7.06609 25.558ZM3.21129 14.1497L4.69743 14.3532L4.9008 12.8676L3.4153 12.6637L3.21129 14.1497ZM4.04371 7.78793L4.03771 6.28794L2.81835 6.29282L2.82435 7.7928L2.83035 9.29279L4.04971 9.28791L4.04371 7.78793ZM2.82435 7.7928L1.32436 7.79878C1.32722 8.51561 1.613 9.20232 2.11953 9.70953L3.1809 8.64958L4.24227 7.58963C4.29455 7.64198 4.32404 7.71285 4.32434 7.78683L2.82435 7.7928ZM3.1809 8.64958L2.11953 9.70953C2.62607 10.2167 3.31239 10.5034 4.02921 10.5073L4.0372 9.00728L4.04519 7.50731C4.11917 7.5077 4.19 7.53729 4.24227 7.58963L3.1809 8.64958ZM4.0372 9.00728L5.53718 9.01528L5.54368 7.79593L4.04371 7.78793L2.54373 7.77993L2.53722 8.99928L4.0372 9.00728ZM8.17652 9.02679L8.16952 10.5268C8.52662 10.5284 8.88056 10.4598 9.21113 10.3246L8.64358 8.93615L8.07603 7.54767C8.11014 7.53373 8.14666 7.52664 8.18352 7.52681L8.17652 9.02679ZM8.64358 8.93615L9.21113 10.3246C9.54169 10.1895 9.84241 9.99061 10.0961 9.73927L9.0404 8.67368L7.9847 7.60808C8.01088 7.58214 8.04191 7.56161 8.07603 7.54767L8.64358 8.93615ZM9.0404 8.67368L10.0961 9.73927C10.3498 9.48794 10.5515 9.1891 10.6897 8.85981L9.30657 8.27932L7.92344 7.69884C7.93771 7.66485 7.95852 7.63401 7.9847 7.60808L9.0404 8.67368ZM9.30657 8.27932L10.6897 8.85981C10.8279 8.53052 10.8999 8.17723 10.9015 7.82013L9.40156 7.81313L7.90158 7.80613C7.90175 7.76928 7.90918 7.73282 7.92344 7.69884L9.30657 8.27932ZM9.40156 7.81313L10.9015 7.82013C10.9032 7.46302 10.8345 7.10908 10.6994 6.77851L9.31092 7.34607L7.92244 7.91362C7.9085 7.8795 7.90141 7.84298 7.90158 7.80613L9.40156 7.81313ZM9.31092 7.34607L10.6994 6.77851C10.5643 6.44795 10.3654 6.14724 10.114 5.89355L9.04845 6.94924L7.98285 8.00494C7.95691 7.97876 7.93639 7.94773 7.92244 7.91362L9.31092 7.34607ZM9.04845 6.94924L10.114 5.89355C9.86271 5.63985 9.56387 5.43815 9.23458 5.29995L8.65409 6.68307L8.07361 8.0662C8.03962 8.05194 8.00879 8.03112 7.98285 8.00494L9.04845 6.94924ZM8.65409 6.68307L9.23458 5.29995C8.90529 5.16175 8.55201 5.08976 8.1949 5.0881L8.1879 6.58808L8.1809 8.08806C8.14404 8.08789 8.10759 8.08046 8.07361 8.0662L8.65409 6.68307ZM5.24193 3.64211L6.74191 3.63411C6.74 3.27701 6.66778 2.92377 6.52936 2.59457L5.14662 3.17598L3.76388 3.75739C3.7496 3.72341 3.74215 3.68696 3.74195 3.65011L5.24193 3.64211ZM5.14662 3.17598L6.52936 2.59457C6.39094 2.26537 6.18904 1.96667 5.93518 1.7155L4.88019 2.7818L3.8252 3.8481C3.799 3.82218 3.77817 3.79136 3.76388 3.75739L5.14662 3.17598ZM4.88019 2.7818L5.93518 1.7155C5.68131 1.46433 5.38047 1.26562 5.04982 1.13072L4.48319 2.51959L3.91656 3.90845C3.88244 3.89453 3.8514 3.87402 3.8252 3.8481L4.88019 2.7818ZM4.48319 2.51959L5.04982 1.13072C4.71916 0.995825 4.36518 0.927373 4.00807 0.929278L4.01607 2.42926L4.02407 3.92924C3.98722 3.92943 3.95069 3.92237 3.91656 3.90845L4.48319 2.51959ZM4.01607 2.42926L4.00807 0.929278C3.65096 0.931182 3.29772 1.0034 2.96853 1.14182L3.54993 2.52456L4.13134 3.9073C4.09737 3.92159 4.06092 3.92904 4.02407 3.92924L4.01607 2.42926ZM3.54993 2.52456L2.96853 1.14182C2.63933 1.28024 2.34062 1.48215 2.08945 1.73601L3.15576 2.791L4.22206 3.84598C4.19614 3.87218 4.16531 3.89302 4.13134 3.9073L3.54993 2.52456ZM3.15576 2.791L2.08945 1.73601C1.83829 1.98987 1.63958 2.29071 1.50468 2.62137L2.89354 3.18799L4.2824 3.75462C4.26848 3.78874 4.24798 3.81979 4.22206 3.84598L3.15576 2.791ZM2.89354 3.18799L1.50468 2.62137C1.36978 2.95202 1.30133 3.30601 1.30323 3.66312L2.80321 3.65512L4.30319 3.64712C4.30339 3.68397 4.29632 3.7205 4.2824 3.75462L2.89354 3.18799ZM3.21292 14.1513L4.69705 14.3689C4.74916 14.0135 4.73033 13.6513 4.64167 13.3032L3.18808 13.6735L1.7345 14.0437C1.72535 14.0078 1.7234 13.9704 1.72878 13.9338L3.21292 14.1513ZM3.18808 13.6735L4.64167 13.3032C4.553 12.9551 4.39626 12.6281 4.18048 12.3409L2.98128 13.242L1.78209 14.1431C1.75982 14.1134 1.74365 14.0797 1.7345 14.0437L3.18808 13.6735ZM2.98128 13.242L4.18048 12.3409C3.9647 12.0537 3.69416 11.8122 3.3845 11.6301L2.62437 12.9233L1.86424 14.2164C1.83228 14.1976 1.80436 14.1727 1.78209 14.1431L2.98128 13.242ZM2.62437 12.9233L3.3845 11.6301C3.07483 11.4481 2.73217 11.3292 2.3763 11.2804L2.1723 12.7664L1.96829 14.2525C1.93156 14.2475 1.8962 14.2352 1.86424 14.2164L2.62437 12.9233ZM2.1723 12.7664L2.3763 11.2804C2.02044 11.2315 1.65842 11.2537 1.31116 11.3455L1.69468 12.7956L2.07821 14.2458C2.04237 14.2553 2.00501 14.2575 1.96829 14.2525L2.1723 12.7664ZM1.69468 12.7956L1.31116 11.3455C0.963888 11.4374 0.638263 11.5971 0.353084 11.8155L1.26509 13.0064L2.17709 14.1973C2.14766 14.2198 2.11406 14.2363 2.07821 14.2458L1.69468 12.7956ZM1.26509 13.0064L0.353084 11.8155C0.0678976 12.0339 -0.171192 12.3066 -0.35038 12.6179L0.949653 13.3662L2.24968 14.1145C2.23119 14.1466 2.20652 14.1747 2.17709 14.1973L1.26509 13.0064ZM0.949653 13.3662L-0.35038 12.6179C-0.529569 12.9292 -0.645304 13.273 -0.690902 13.6293L0.796963 13.8197L2.28483 14.0101C2.28012 14.0469 2.26818 14.0823 2.24968 14.1145L0.949653 13.3662ZM0.796963 13.8197L0.592955 15.3057L3.00891 15.6374L3.21292 14.1513L3.41692 12.6653L1.00097 12.3336L0.796963 13.8197ZM27.657 4.9704L28.7176 3.90974C21.9318 -2.87612 10.9457 -2.96219 4.1795 3.80583L5.2403 4.86635L6.3011 5.92687C11.8748 0.351735 20.961 0.395724 26.5963 6.03106L27.657 4.9704ZM6.96366 6.5897L8.02416 7.65053C12.6312 3.04493 20.1733 3.05617 24.8731 7.75458L25.9336 6.69376L26.9941 5.63293C21.1425 -0.216916 11.7013 -0.267453 5.90317 5.52888L6.96366 6.5897ZM5.34435 27.283L4.28369 28.3437C11.0696 35.1295 22.0556 35.2156 28.8218 28.4476L27.761 27.3871L26.7002 26.3266C21.1266 31.9017 12.0403 31.8577 6.40501 26.2224L5.34435 27.283ZM26.0377 25.6637L24.9772 24.6029C20.3701 29.2085 12.8281 29.1972 8.12821 24.4988L7.06771 25.5597L6.00722 26.6205C11.8589 32.4703 21.3 32.5209 27.0982 26.7245L26.0377 25.6637ZM7.06771 25.5597L6.00705 24.499L4.28369 26.2224L5.34435 27.283L6.40501 28.3437L8.12837 26.6203L7.06771 25.5597ZM27.761 27.3871L28.8217 28.4477C35.5877 21.6817 35.5037 10.6958 28.7176 3.90974L27.657 4.9704L26.5963 6.03106C32.2315 11.6662 32.2742 20.7525 26.7004 26.3264L27.761 27.3871ZM25.9336 6.69376L24.8728 7.75425C29.5712 12.4541 29.5824 19.9962 24.9768 24.6032L26.0377 25.6637L27.0985 26.7242C32.8948 20.9261 32.8443 11.4849 26.9944 5.63326L25.9336 6.69376ZM5.2403 4.86635L4.18006 3.80527L2.12016 5.86354L3.1804 6.92462L4.24064 7.9857L6.30054 5.92742L5.2403 4.86635ZM3.1804 6.92462L2.12024 7.98578L3.84523 9.70914L4.90539 8.64798L5.96555 7.58682L4.24056 5.86346L3.1804 6.92462ZM4.90539 8.64798L5.96605 9.70864L8.02432 7.65036L6.96366 6.5897L5.903 5.52904L3.84473 7.58732L4.90539 8.64798ZM4.0372 9.00728L4.03013 10.5073L8.16945 10.5268L8.17652 9.02679L8.18359 7.52681L4.04427 7.5073L4.0372 9.00728ZM8.1879 6.58808L8.19497 5.0881L4.05728 5.06859L4.05021 6.56857L4.04314 8.06855L8.18082 8.08806L8.1879 6.58808ZM4.05021 6.56857L2.55023 6.56057L2.53722 8.99928L4.0372 9.00728L5.53718 9.01528L5.55019 6.57657L4.05021 6.56857ZM5.26306 7.78142L6.76304 7.77376L6.74191 3.63445L5.24193 3.64211L3.74195 3.64977L3.76308 7.78908L5.26306 7.78142ZM2.80321 3.65512L1.30323 3.66278L1.32437 7.80047L2.82435 7.7928L4.32433 7.78514L4.30319 3.64746L2.80321 3.65512ZM2.82435 7.7928L2.83135 9.29279L5.27006 9.28141L5.26306 7.78142L5.25606 6.28144L2.81735 6.29282L2.82435 7.7928ZM0.795337 13.8181L-0.690813 13.6147C-1.05654 16.2874 -0.797627 19.0084 0.0655999 21.5642L1.48673 21.0842L2.90785 20.6042C2.19304 18.4878 1.97863 16.2346 2.28149 14.0214L0.795337 13.8181ZM1.48673 21.0842L0.0655999 21.5642C0.928827 24.1199 2.37285 26.4407 4.28425 28.3442L5.34273 27.2814L6.4012 26.2186C4.81843 24.6423 3.62267 22.7205 2.90785 20.6042L1.48673 21.0842ZM5.34273 27.2814L6.40339 28.3421L8.12675 26.6187L7.06609 25.558L6.00543 24.4974L4.28207 26.2207L5.34273 27.2814ZM7.06609 25.558L8.12425 24.4949C6.80771 23.1845 5.81305 21.5867 5.21844 19.8269L3.79737 20.3071L2.3763 20.7873C3.11943 22.9866 4.36255 24.9835 6.00793 26.6212L7.06609 25.558ZM3.79737 20.3071L5.21844 19.8269C4.62383 18.0672 4.44549 16.1935 4.69743 14.3532L3.21129 14.1497L1.72515 13.9463C1.41028 16.2463 1.63317 18.588 2.3763 20.7873L3.79737 20.3071ZM3.21129 14.1497L3.4153 12.6637L0.999346 12.332L0.795337 13.8181L0.591328 15.3041L3.00728 15.6358L3.21129 14.1497Z" fill="#201B10" mask="url(#path-3-inside-1_0_1)"/>
</svg>
