<svg width="31" height="29" viewBox="0 0 31 29" fill="none" xmlns="http://www.w3.org/2000/svg">
<path d="M15.4999 1.68408V19.222" stroke="#201B10" stroke-width="2.5" stroke-miterlimit="10" stroke-linecap="round"/>
<path d="M22.2446 7.87315L16.4623 2.0894C16.2065 1.8363 15.8612 1.69434 15.5013 1.69434C15.1414 1.69434 14.7961 1.8363 14.5403 2.0894L8.75505 7.87315M2.01026 17.1977V23.9425C2.00968 24.3857 2.09654 24.8245 2.26585 25.234C2.43516 25.6436 2.6836 26.0156 2.99694 26.329C3.31028 26.6423 3.68236 26.8908 4.09186 27.0601C4.50137 27.2294 4.94026 27.3162 5.38338 27.3157H25.6178C26.0608 27.316 26.4995 27.229 26.9088 27.0596C27.3182 26.8902 27.6901 26.6418 28.0033 26.3285C28.3164 26.0151 28.5648 25.6431 28.734 25.2337C28.9032 24.8243 28.99 24.3855 28.9894 23.9425V17.1977" stroke="#201B10" stroke-width="2.5" stroke-linecap="round" stroke-linejoin="round"/>
</svg>
